<svg width="76" height="60" viewBox="0 0 76 60" fill="none" xmlns="http://www.w3.org/2000/svg">
<path fill-rule="evenodd" clip-rule="evenodd" d="M65.7417 6.84522C57.0647 14.5142 52.3767 23.9632 52.2407 32.7742C54.5207 31.4272 57.2167 30.6362 60.1167 30.6362C68.2627 30.6362 74.8667 36.7922 74.8667 44.3862C74.8667 51.9802 69.9217 58.0312 61.7827 58.3842C57.9497 58.5502 51.9497 58.0492 45.8827 47.9452C40.7087 36.4022 45.0287 20.6402 57.2427 9.84422C62.7387 4.98722 69.0387 1.84522 75.2907 0.449219C71.9627 2.07322 68.7327 4.20222 65.7417 6.84522ZM22.7417 7.84422C14.0647 15.5142 9.37669 24.9622 9.24069 33.7742C11.5207 32.4272 14.2167 31.6362 17.1167 31.6362C25.2627 31.6362 31.8667 37.7932 31.8667 45.3862C31.8667 52.9802 26.9217 59.0312 18.7827 59.3832C14.9497 59.5492 8.94969 59.0492 2.88269 48.9452C-2.29131 37.4022 2.02869 21.6412 14.2427 10.8442C19.7387 5.98722 26.0387 2.84522 32.2907 1.45022C28.9627 3.07322 25.7327 5.20222 22.7417 7.84422Z" fill="#50AEC7"/>
</svg>
